<svg width="18" height="19" fill="none" xmlns="http://www.w3.org/2000/svg"><path d="M6.188 7.844h5.625a.578.578 0 0 0 .562-.563V6.72c0-.282-.281-.563-.563-.563H6.189a.578.578 0 0 0-.563.563v.562c0 .317.246.563.563.563Zm-.563 2.812c0 .317.246.563.563.563h5.625a.578.578 0 0 0 .562-.563v-.562c0-.281-.281-.563-.563-.563H6.189a.578.578 0 0 0-.563.563v.562ZM9 14.946c-.598 0-1.16-.176-1.652-.563L0 9.074v7.489c0 .949.738 1.687 1.688 1.687h14.624c.915 0 1.688-.738 1.688-1.688V9.075l-7.383 5.309A2.588 2.588 0 0 1 9 14.945Zm8.332-8.966c-.316-.21-.598-.457-1.02-.773V3.625c0-.914-.773-1.688-1.687-1.688h-2.742l-.317-.21C10.97 1.305 9.81.25 9 .25c-.844 0-2.004 1.055-2.602 1.477l-.316.21H3.375c-.95 0-1.688.774-1.688 1.688v1.582C1.23 5.523.95 5.77.633 5.98A1.738 1.738 0 0 0 0 7.316v.387l3.375 2.426V3.625h11.25v6.504L18 7.703v-.387c0-.527-.246-.984-.668-1.336Z" fill="#fff"/></svg>