<svg aria-hidden="true" style="position: absolute; width: 0; height: 0; overflow: hidden;" version="1.1" xmlns="http://www.w3.org/2000/svg" xmlns:xlink="http://www.w3.org/1999/xlink">
<defs>
<symbol id="icon-facebook" viewBox="0 0 30 32">
<path  d="M30 16c0-8.155-6.607-14.762-14.762-14.762s-14.762 6.607-14.762 14.762c0 7.381 5.357 13.512 12.44 14.583v-10.298h-3.75v-4.286h3.75v-3.214c0-3.69 2.202-5.774 5.536-5.774 1.667 0 3.333 0.298 3.333 0.298v3.631h-1.845c-1.845 0-2.44 1.131-2.44 2.321v2.738h4.107l-0.655 4.286h-3.452v10.298c7.083-1.071 12.5-7.202 12.5-14.583z"></path>
</symbol>
<symbol id="icon-instagram" viewBox="0 0 30 32">
<path d="M15.158 8.434c-4.211 0-7.566 3.421-7.566 7.566 0 4.211 3.355 7.566 7.566 7.566 4.145 0 7.566-3.355 7.566-7.566 0-4.145-3.421-7.566-7.566-7.566zM15.158 20.934c-2.697 0-4.934-2.171-4.934-4.934 0-2.697 2.171-4.868 4.934-4.868 2.697 0 4.868 2.171 4.868 4.868 0 2.763-2.171 4.934-4.868 4.934zM24.763 8.171c0 0.987-0.789 1.776-1.776 1.776s-1.776-0.789-1.776-1.776 0.789-1.776 1.776-1.776c0.987 0 1.776 0.789 1.776 1.776zM29.763 9.947c-0.132-2.368-0.658-4.474-2.369-6.184s-3.816-2.237-6.184-2.368c-2.434-0.132-9.737-0.132-12.171 0-2.368 0.132-4.408 0.658-6.184 2.368-1.711 1.711-2.237 3.816-2.368 6.184-0.132 2.434-0.132 9.737 0 12.171 0.132 2.369 0.658 4.408 2.368 6.184 1.776 1.71 3.816 2.237 6.184 2.368 2.434 0.132 9.737 0.132 12.171 0 2.368-0.132 4.474-0.658 6.184-2.368 1.71-1.776 2.237-3.816 2.369-6.184 0.132-2.434 0.132-9.737 0-12.171zM26.605 24.684c-0.461 1.316-1.513 2.303-2.763 2.829-1.974 0.79-6.579 0.592-8.684 0.592-2.171 0-6.776 0.197-8.684-0.592-1.316-0.526-2.303-1.513-2.829-2.829-0.789-1.908-0.592-6.513-0.592-8.684 0-2.105-0.197-6.711 0.592-8.684 0.526-1.25 1.513-2.237 2.829-2.763 1.908-0.789 6.513-0.592 8.684-0.592 2.105 0 6.711-0.197 8.684 0.592 1.25 0.461 2.237 1.513 2.763 2.763 0.789 1.974 0.592 6.579 0.592 8.684 0 2.171 0.197 6.776-0.592 8.684z"></path>
</symbol>
<symbol id="icon-message" viewBox="0 0 30 32">
<path d="M25.421 5.605c-2.697-2.763-6.382-4.342-10.329-4.342-8.026 0-14.605 6.579-14.605 14.605 0 2.632 0.724 5.132 1.974 7.303l-2.039 7.566 7.697-1.974c2.171 1.118 4.539 1.776 6.974 1.776 8.092 0 14.803-6.579 14.803-14.605 0-3.947-1.71-7.566-4.474-10.329zM15.092 28.039c-2.171 0-4.276-0.592-6.184-1.71l-0.395-0.263-4.605 1.25 1.25-4.474-0.329-0.46c-1.184-1.974-1.842-4.211-1.842-6.513 0-6.645 5.461-12.105 12.171-12.105 3.224 0 6.25 1.25 8.553 3.553s3.684 5.329 3.684 8.618c0 6.645-5.592 12.105-12.303 12.105zM21.803 18.96c-0.395-0.197-2.171-1.053-2.5-1.184s-0.592-0.197-0.855 0.197c-0.197 0.329-0.921 1.184-1.118 1.447-0.263 0.197-0.461 0.263-0.79 0.066-2.171-1.053-3.553-1.908-5-4.342-0.395-0.658 0.395-0.592 1.053-1.974 0.132-0.263 0.066-0.46 0-0.658s-0.855-1.974-1.118-2.697c-0.329-0.724-0.592-0.658-0.855-0.658-0.197 0-0.461 0-0.658 0-0.263 0-0.658 0.066-0.987 0.461s-1.25 1.25-1.25 3.026c0 1.842 1.25 3.553 1.447 3.816 0.197 0.197 2.566 3.882 6.25 5.46 2.303 1.053 3.224 1.118 4.408 0.921 0.658-0.066 2.105-0.855 2.434-1.71s0.329-1.579 0.197-1.711c-0.066-0.197-0.329-0.263-0.658-0.46z"></path>
</symbol>
<symbol id="icon-phone" viewBox="0 0 27 32">
<path d="M7.849 30.441c0.178 0.237 0.414 0.296 0.711 0.296 0.178 0 0.355 0 0.533-0.118l3.849-2.428c0.296-0.178 0.474-0.474 0.474-0.829 0-0.118 0-0.296-0.059-0.414l-1.954-4.796c-0.118-0.355-0.474-0.592-0.947-0.592h-0.059l-3.316 0.296c-1.243-3.375-1.243-7.165 0-10.599l3.316 0.296h0.059c0.474 0 0.829-0.237 0.947-0.592l1.954-4.796c0.059-0.118 0.059-0.296 0.059-0.414 0-0.355-0.178-0.651-0.474-0.829l-3.849-2.428c-0.414-0.237-0.888-0.178-1.243 0.178-7.697 7.638-7.697 20.132 0 27.77zM16.73 6.105c-0.237-0.414-0.77-0.474-1.125-0.178l-0.355 0.355c-0.237 0.237-0.296 0.592-0.118 0.888 0.118 0.237 0.178 0.533 0.178 0.888 0 0.296-0.059 0.592-0.178 0.829-0.178 0.296-0.118 0.651 0.118 0.888l0.355 0.355c0.355 0.296 0.888 0.237 1.125-0.178 0.651-1.184 0.651-2.665 0-3.849zM22.118 0.717c-0.237-0.355-0.711-0.355-1.006-0.059l-0.355 0.296c-0.237 0.296-0.296 0.711-0.059 1.007 2.96 3.493 2.96 8.645 0 12.138-0.237 0.296-0.178 0.711 0.059 1.007l0.355 0.296c0.296 0.296 0.77 0.296 1.006-0.059 3.612-4.204 3.612-10.421 0-14.625zM19.395 3.382c-0.237-0.355-0.71-0.414-1.006-0.118l-0.355 0.355c-0.296 0.237-0.296 0.651-0.118 0.947 1.599 2.013 1.599 4.914 0 6.928-0.178 0.296-0.178 0.711 0.118 0.947l0.355 0.355c0.296 0.296 0.77 0.237 1.006-0.118 2.191-2.724 2.132-6.572 0-9.296z"></path>
</symbol>
<symbol id="icon-phone2" viewBox="0 0 32 32">
<path d="M28.19 31.988h0.204c0.956 0 1.873-0.38 2.55-1.056s1.056-1.593 1.056-2.55v-6.346c0.003-0.477-0.135-0.945-0.399-1.343s-0.639-0.709-1.080-0.893l-4.531-1.815c-0.435-0.183-0.914-0.234-1.378-0.146s-0.892 0.31-1.23 0.639l-2.608 2.584c-2.272-0.404-4.365-1.497-5.995-3.131s-2.717-3.73-3.116-6.003l2.56-2.584c0.333-0.333 0.56-0.757 0.654-1.219s0.050-0.941-0.126-1.377l-1.827-4.495c-0.178-0.447-0.486-0.831-0.885-1.101s-0.869-0.414-1.35-0.414h-6.334c-0.096 0-0.192 0.004-0.287 0.011-0.953 0.073-1.839 0.522-2.461 1.248s-0.931 1.669-0.858 2.623c0.469 6.082 3.822 26.009 27.439 27.367zM3.896 3.233c0.146-0.060 0.302-0.091 0.46-0.090h6.346l1.803 4.531-3.413 3.449 0.072 0.577c0 0.108 1.418 10.564 11.875 11.875l0.577 0.072 3.449-3.425 4.531 1.815v6.346l-0.002 0.075c-0.019 0.318-0.164 0.616-0.402 0.827s-0.551 0.319-0.869 0.3c-21.069-1.202-24.615-18.028-25.167-25.143-0.002-0.033-0.004-0.066-0.004-0.1 0-0.158 0.032-0.314 0.093-0.46s0.15-0.278 0.262-0.389c0.112-0.111 0.245-0.199 0.391-0.259zM30.798 12.758h-2.404c-0.002-2.231-0.89-4.369-2.467-5.946s-3.716-2.464-5.946-2.467v-2.404c2.868 0.003 5.617 1.144 7.645 3.172s3.168 4.777 3.172 7.645zM25.991 12.758h-2.404c-0.001-0.956-0.381-1.873-1.057-2.549s-1.593-1.056-2.549-1.057v-2.404c1.593 0.002 3.121 0.636 4.247 1.762s1.76 2.654 1.762 4.247z"></path>
</symbol>
<symbol id="icon-post" viewBox="0 0 30 32">
<path d="M10.421 13.211h9.474c0.474 0 0.947-0.414 0.947-0.947v-0.947c0-0.474-0.474-0.947-0.947-0.947h-9.474c-0.533 0-0.947 0.474-0.947 0.947v0.947c0 0.533 0.414 0.947 0.947 0.947zM9.474 17.947c0 0.533 0.414 0.948 0.947 0.948h9.474c0.474 0 0.947-0.414 0.947-0.948v-0.947c0-0.474-0.474-0.947-0.947-0.947h-9.474c-0.533 0-0.947 0.474-0.947 0.947v0.947zM15.158 25.171c-1.007 0-1.954-0.296-2.783-0.947l-12.375-8.941v12.612c0 1.599 1.243 2.842 2.842 2.842h24.632c1.54 0 2.842-1.243 2.842-2.842v-12.612l-12.434 8.941c-0.829 0.651-1.776 0.947-2.724 0.947zM29.191 10.072c-0.533-0.355-1.006-0.77-1.717-1.303v-2.664c0-1.539-1.303-2.842-2.842-2.842h-4.618c-0.178-0.118-0.355-0.237-0.533-0.355-1.006-0.711-2.961-2.487-4.322-2.487-1.421 0-3.375 1.776-4.382 2.487-0.178 0.118-0.355 0.237-0.533 0.355h-4.559c-1.599 0-2.842 1.303-2.842 2.842v2.664c-0.77 0.533-1.243 0.947-1.776 1.303-0.651 0.533-1.066 1.362-1.066 2.25v0.651l5.684 4.086v-10.954h18.947v10.954l5.684-4.086v-0.651c0-0.888-0.414-1.658-1.125-2.25z"></path>
</symbol>
<symbol id="icon-tik-tok" viewBox="0 0 26 32">
<path  d="M26.087 12.109c-2.446 0.054-4.728-0.707-6.685-2.12v9.728c0 6.793-7.391 11.033-13.261 7.663-5.87-3.424-5.87-11.902 0-15.326 1.685-0.978 3.696-1.359 5.652-1.087v4.891c-2.989-0.978-5.87 1.685-5.217 4.728 0.707 3.043 4.402 4.239 6.739 2.119 0.815-0.761 1.304-1.848 1.304-2.989v-19.022h4.783c0 0.435 0 0.815 0.109 1.25 0.326 1.793 1.359 3.37 2.935 4.348 1.033 0.707 2.337 1.087 3.641 1.087v4.728z"></path>
</symbol>
</defs>
</svg>
